# xmcd CD database file
#
# Track frame offsets:
#	150
#	9341
#	25886
#	57345
#	101967
#	119620
#	134564
#	162711
#	205816
#	226829
#	259617
#	270549
#	287230
#
# Disc length: 4077 seconds
#
# Revision: 0
# Processed by: cddbd v1.5.2PL0 Copyright (c) Steve Scherf et al.
# Submitted via: CDex 1.99.1
#
DISCID=c00feb0d
DTITLE=Ulrike Haage (1957) - Ulrike Haage 2011 - IN - FINITUM
DYEAR=2011
DGENRE=Jazz
TTITLE0=Ulrike Haage - momen (lament)
TTITLE1=Ulrike Haage - nuna I
TTITLE2=Ulrike Haage - die lesbarkeit der welt
TTITLE3=Ulrike Haage - fingerprints a
TTITLE4=Ulrike Haage - fingerprints b
TTITLE5=Ulrike Haage - momen (uhren und spiegel)
TTITLE6=Ulrike Haage - lament
TTITLE7=Ulrike Haage - evocations
TTITLE8=Ulrike Haage - blattseele
TTITLE9=Ulrike Haage - was nie geschrieben wurde
TTITLE10=Ulrike Haage - momen (addendum)
TTITLE11=Ulrike Haage - nuna 2
TTITLE12=Ulrike Haage - aeolos
EXTD=YEAR: 2011
EXTT0=
EXTT1=
EXTT2=
EXTT3=
EXTT4=
EXTT5=
EXTT6=
EXTT7=
EXTT8=
EXTT9=
EXTT10=
EXTT11=
EXTT12=
PLAYORDER=
